<?xml version="1.0" encoding="UTF-8"?>
<!DOCTYPE svg PUBLIC "-//W3C//DTD SVG 1.1//EN" "http://www.w3.org/Graphics/SVG/1.1/DTD/svg11.dtd">
<!-- Creator: CorelDRAW X7 -->
<svg xmlns="http://www.w3.org/2000/svg" xml:space="preserve" width="10in" height="2in" version="1.1" style="shape-rendering:geometricPrecision; text-rendering:geometricPrecision; image-rendering:optimizeQuality; fill-rule:evenodd; clip-rule:evenodd"
viewBox="0 0 10000 2000"
 xmlns:xlink="http://www.w3.org/1999/xlink">
 <defs>
  <style type="text/css">
   <![CDATA[
    .fil0 {fill:black;fill-rule:nonzero}
    .fil1 {fill:#C01704;fill-rule:nonzero}
   ]]>
  </style>
 </defs>
 <g id="Layer_x0020_1">
  <metadata id="CorelCorpID_0Corel-Layer"/>
  <g id="_601702928">
   <path class="fil0" d="M1128 476c73,0 140,18 200,54 61,36 109,84 145,144 36,61 54,128 54,202l0 594 -163 0 0 -594c0,-66 -23,-122 -69,-168 -46,-46 -102,-69 -167,-69 -66,0 -122,23 -168,69 -46,46 -69,102 -69,168l0 594 -163 0 0 -594c0,-74 18,-141 54,-202 36,-60 84,-108 144,-144 61,-36 128,-54 202,-54zm6971 513c67,0 123,23 171,71 47,47 70,104 70,170 0,66 -23,122 -70,170 -48,47 -104,70 -171,70l-520 0 0 -162 520 0c22,0 40,-8 56,-23 15,-16 23,-34 23,-55 0,-22 -8,-40 -23,-55 -16,-16 -34,-23 -56,-23l-59 0 -33 0 -220 0c-66,0 -123,-24 -170,-71 -47,-46 -71,-103 -71,-170 0,-66 24,-123 71,-170 47,-46 104,-70 170,-70l521 0 0 163 -521 0c-22,0 -40,8 -55,22 -15,15 -23,34 -23,55 0,22 8,40 23,55 15,15 33,23 55,23l220 0 33 0 59 0zm-1255 1l445 0c-18,-46 -47,-84 -86,-113 -40,-28 -86,-43 -137,-43 -51,0 -97,15 -136,43 -40,29 -69,67 -86,113zm222 -319c74,0 141,18 201,54 61,36 109,84 145,145 36,60 54,127 54,201l0 82 -622 0c17,45 46,82 86,111 40,29 86,44 137,44l252 0 0 162 -252 0c-74,0 -141,-18 -201,-54 -61,-36 -110,-84 -146,-145 -36,-60 -54,-127 -54,-201 0,-73 18,-140 54,-200 36,-61 85,-109 145,-145 60,-36 127,-54 201,-54zm-918 401c0,-73 18,-140 54,-201 36,-61 85,-109 145,-145 61,-36 128,-54 201,-54 13,0 30,2 49,4 20,3 39,8 58,16l-57 152c-8,-3 -17,-6 -27,-7 -9,-1 -17,-2 -23,-2 -65,0 -121,23 -167,70 -47,46 -70,102 -70,167l0 398 -163 0 0 -398zm-285 -202l163 0 0 600 -163 0 0 -600zm163 -318l0 163 -163 0 0 -82 163 -81zm-448 614l0 -497 163 0 0 497c0,84 -30,156 -90,215 -60,60 -132,89 -216,89 -90,0 -165,-32 -226,-98 -62,66 -138,98 -226,98 -85,0 -158,-29 -218,-89 -60,-59 -90,-131 -90,-215l0 -497 163 0 0 497c0,39 14,73 42,101 28,28 62,42 103,42 40,0 74,-14 102,-42 28,-28 42,-62 42,-101l0 -497 163 0 0 497c0,39 14,73 42,101 28,28 63,42 103,42 39,0 73,-14 101,-42 28,-28 42,-62 42,-101zm-1266 -177c66,0 123,23 170,71 47,47 71,104 71,170 0,66 -24,122 -71,170 -47,47 -104,70 -170,70l-521 0 0 -162 521 0c21,0 40,-8 55,-23 15,-16 23,-34 23,-55 0,-22 -8,-40 -23,-55 -15,-16 -34,-23 -55,-23l-59 0 -33 0 -221 0c-66,0 -122,-24 -170,-71 -47,-46 -70,-103 -70,-170 0,-66 23,-123 70,-170 48,-46 104,-70 170,-70l521 0 0 163 -521 0c-21,0 -39,8 -54,22 -16,15 -23,34 -23,55 0,22 7,40 23,55 15,15 33,23 54,23l221 0 33 0 59 0zm-838 177l0 -497 163 0 0 497c0,84 -31,156 -91,215 -60,60 -132,89 -216,89 -90,0 -165,-32 -226,-98 -62,66 -137,98 -226,98 -85,0 -157,-29 -217,-89 -60,-59 -90,-131 -90,-215l0 -497 162 0 0 497c0,39 15,73 43,101 28,28 62,42 102,42 40,0 74,-14 102,-42 29,-28 43,-62 43,-101l0 -497 162 0 0 497c0,39 15,73 43,101 28,28 62,42 102,42 39,0 73,-14 101,-42 29,-28 43,-62 43,-101zm-1648 -176l445 0c-17,-46 -46,-84 -86,-113 -40,-28 -85,-43 -137,-43 -51,0 -96,15 -136,43 -39,29 -68,67 -86,113zm222 -319c74,0 141,18 202,54 60,36 108,84 144,145 36,60 54,127 54,201l0 82 -622 0c18,45 47,82 87,111 40,29 85,44 136,44l253 0 0 162 -253 0c-73,0 -140,-18 -201,-54 -61,-36 -109,-84 -145,-145 -36,-60 -54,-127 -54,-201 0,-73 18,-140 54,-200 36,-61 84,-109 145,-145 60,-36 127,-54 200,-54z"/>
   <path class="fil1" d="M8845 891l-79 0 0 -279 79 0 0 279zm257 0l-123 -148 0 148 -78 0 0 -279 65 0 123 149 0 -149 63 0c-53,-123 -176,-209 -319,-209 -143,0 -266,86 -320,209l204 0 0 61 -140 0 0 47 124 0 0 59 -124 0 0 51 146 0 0 61 -210 0c54,123 177,210 320,210 143,0 266,-87 319,-210l-50 0z"/>
  </g>
 </g>
</svg>
